<?xml version="1.0" encoding="utf-8"?>
<!-- Generator: Adobe Illustrator 22.0.1, SVG Export Plug-In . SVG Version: 6.00 Build 0)  -->
<svg version="1.1" id="Layer_1" xmlns="http://www.w3.org/2000/svg" xmlns:xlink="http://www.w3.org/1999/xlink" x="0px" y="0px"
	 viewBox="0 0 146 41" style="enable-background:new 0 0 146 41;" xml:space="preserve">
<style type="text/css">
	.st0{fill:#FFFFFF;}
	.st1{fill:#CD0005;}
	.st2{fill:#BFBFBF;}
	.st3{opacity:0;fill:#BFBFBF;}
	.st4{fill:#EA3D4A;}
	.st5{opacity:0;}
	.st6{opacity:0.7;}
	.st7{opacity:0.8;}
	.st8{fill:none;stroke:#BFBFBF;stroke-width:0.5;stroke-miterlimit:10;}
	.st9{clip-path:url(#SVGID_4_);fill:#CD0005;}
	.st10{clip-path:url(#SVGID_4_);}
	.st11{fill:#FFFFFF;stroke:#CD0005;stroke-width:1.4;stroke-miterlimit:10;}
	.st12{fill:none;stroke:#FFFFFF;stroke-width:13;stroke-miterlimit:10;}
	.st13{fill:#4472C4;}
	.st14{fill:none;}
	.st15{fill:none;stroke:#CD0005;stroke-miterlimit:10;}
	.st16{fill:none;stroke:#E2E2E2;stroke-miterlimit:10;}
	.st17{fill:#E2E2E2;}
	.st18{fill:#CD0005;stroke:#CD0005;stroke-miterlimit:10;}
</style>
<g>
	<g>
		<g>
			<path d="M14.3,40.5L0.8,5.6h9.5l8.9,25.6L28,5.6h9.1L23.5,40.5H14.3z"/>
		</g>
		<g>
			<path d="M78.9,23c0,10.2-8.1,17.9-18.9,17.9c-10.8,0-18.8-7.7-18.8-17.9c0-10.2,8.1-17.7,18.8-17.7C70.8,5.3,78.9,12.9,78.9,23z
				 M50.2,23c0,5.9,4.5,10.4,9.9,10.4c5.4,0,9.7-4.5,9.7-10.4c0-5.9-4.3-10.3-9.7-10.3S50.2,17.2,50.2,23z"/>
		</g>
		<g>
			<path d="M86.5,40.5V5.6h8.9v34.8H86.5z"/>
		</g>
		<g>
			<path d="M115.1,33.4H134v7h-30.8v-5.7l18.7-22.1h-18v-7h29.8v5.7L115.1,33.4z"/>
		</g>
	</g>
	<path class="st14" d="M135.9,1.2h9.3v9.3h-9.3V1.2z"/>
	<path d="M139.4,0.1c2.6,0,4.6,2.1,4.6,4.6s-2.1,4.6-4.6,4.6c-2.6,0-4.6-2.1-4.6-4.6S136.9,0.1,139.4,0.1z M139.4,1.1
		c-2.1,0-3.7,1.7-3.7,3.7s1.7,3.7,3.7,3.7c2.1,0,3.7-1.7,3.7-3.7S141.5,1.1,139.4,1.1z M139.7,2.5c0.9,0,1.6,0.7,1.6,1.6
		c0,0.6-0.3,1.1-0.8,1.4l1.2,1.6h-1.1l-1-1.4h-1v1.4h-0.9V2.5H139.7z M139.7,3.4h-1.2v1.4h1.2c0.4,0,0.7-0.3,0.7-0.6l0-0.1
		C140.3,3.7,140,3.4,139.7,3.4z"/>
</g>
</svg>
